# xmcd
#
# Track frame offsets:
# 150
# 22886
# 38995
# 73675
# 99960
# 124314
# 156858
# 185088
# 219695
# 235597
#
# Disc length: 3328 seconds
#
#
# Revision: 0
# Processed by: cddbd v1.5.2PL0 Copyright (c) Steve Scherf et al.
# Submitted via: FreeRIP 2.944 
#
DISCID=860cfe0a
DTITLE=The Michael Landau Group - Organic Instrumentals
DYEAR=2012
DGENRE=Fusion
TTITLE0=Delano
TTITLE1=Sneaker Wave
TTITLE2=Spider Time
TTITLE3=The Big Black Bear
TTITLE4=Karen Mellow
TTITLE5=Ghouls And The Goblins
TTITLE6=Big Sur Howl
TTITLE7=Woolly Mammoth
TTITLE8=Smoke
TTITLE9=The Family Tree
EXTD=
EXTT0=
EXTT1=
EXTT2=
EXTT3=
EXTT4=
EXTT5=
EXTT6=
EXTT7=
EXTT8=
EXTT9=
PLAYORDER=
